# xmcd CD database file
#
# Track frame offsets:
#	150
#	26520
#	57083
#	77848
#	95632
#	142629
#	165120
#	192865
#	222864
#
# Disc length: 3443 seconds
#
# Revision: 0
# Processed by: cddbd v1.5.2PL0 Copyright (c) Steve Scherf et al.
# Submitted via: CDex 1.70beta2
#
DISCID=670d7109
DTITLE=Alex GuniaPhilipp van Endert - Beauty of Silence
DYEAR=1998
DGENRE=Jazz
TTITLE0=Number One
TTITLE1=Tribute to Glenn Miller
TTITLE2=Even Plains
TTITLE3=Like the morning sunrise
TTITLE4=Mastermind
TTITLE5=Medicine Man
TTITLE6=Ille Pille
TTITLE7=Lullaby
TTITLE8=Gimmes never get
EXTD=YEAR: 1998
EXTT0=
EXTT1=
EXTT2=
EXTT3=
EXTT4=
EXTT5=
EXTT6=
EXTT7=
EXTT8=
PLAYORDER=
